<?xml version="1.0" encoding="UTF-8"?>
<svg id="Calque_1" data-name="Calque 1" xmlns="http://www.w3.org/2000/svg" xmlns:xlink="http://www.w3.org/1999/xlink" viewBox="0 0 231.27 161.62">
  <defs>
    <style>
      .cls-1 {
        fill: url(#Dégradé_sans_nom_67);
      }

      .cls-2 {
        fill: url(#Dégradé_sans_nom_67-2);
      }

      .cls-3 {
        fill: url(#Dégradé_sans_nom_67-3);
      }

      .cls-4 {
        fill: #552361;
      }
    </style>
    <linearGradient id="Dégradé_sans_nom_67" data-name="Dégradé sans nom 67" x1="59" y1="-62.41" x2="187.29" y2="96.43" gradientUnits="userSpaceOnUse">
      <stop offset="0" stop-color="#702f6a"/>
      <stop offset="1" stop-color="#36a9e1"/>
    </linearGradient>
    <linearGradient id="Dégradé_sans_nom_67-2" data-name="Dégradé sans nom 67" x1="66.9" y1="-68.79" x2="195.19" y2="90.05" xlink:href="#Dégradé_sans_nom_67"/>
    <linearGradient id="Dégradé_sans_nom_67-3" data-name="Dégradé sans nom 67" x1="21.81" y1="-32.37" x2="150.1" y2="126.47" xlink:href="#Dégradé_sans_nom_67"/>
  </defs>
  <path class="cls-1" d="M162.04,64.66h-.83c.14,0,.27,0,.41,0s.28,0,.42,0Z"/>
  <path class="cls-2" d="M210.11,16.16v129.3h-.01c0,8.92-7.24,16.16-16.16,16.16s-16.16-7.24-16.16-16.16v-48.48h-48.48c-8.93-.01-16.16-7.25-16.16-16.17s7.23-16.16,16.16-16.16c.14,0,.28,0,.42,0h48.06v-22.25c-1.65-4.8-5.5-8.57-10.36-10.09-.63-.2-1.28-.36-1.95-.47,7.07-1.72,12.31-8.09,12.31-15.69,0-8.92-7.23-16.16-16.16-16.16h32.32c8.93,0,16.17,7.24,16.17,16.16Z"/>
  <path class="cls-3" d="M161.62,16.16c0,5.98-3.25,11.2-8.08,13.99-2.38,1.38-5.14,2.17-8.08,2.17h-38.11s-.01,0-.02,0c-4.86,1.52-8.72,5.31-10.36,10.11,0,0,0,.01,0,.02v103.01c0,9.16-7.62,16.55-16.88,16.14-8.73-.38-15.44-7.91-15.44-16.65V32.37s-.02-.05-.05-.05H16.67c-8.73,0-16.26-6.7-16.65-15.42C-.4,7.65,6.99,0,16.17,0h129.29c2.94,0,5.7.79,8.08,2.17,4.83,2.79,8.08,8.01,8.08,13.99Z"/>
  <path class="cls-4" d="M227.02,13.32h-10.6v-3.15h14.5v4.04c0,1.23-.42,2.18-1.25,2.86-.93.75-2.12,1.13-3.56,1.13s-2.7-.47-3.71-1.4l-5.98,1.81v-3.3l4.67-1.53h3.73v.25c0,.66.39.99,1.17.99.69,0,1.03-.38,1.03-1.15v-.56Z"/>
  <path class="cls-4" d="M223.69,23.51h-3.82v-.91h-3.45v-3.15h9.22c1.78,0,3.17.36,4.16,1.07.99.71,1.48,1.71,1.48,3s-.45,2.16-1.34,2.75-2.28.89-4.15.89h-9.37v-3.15h9.08c.57,0,.96-.05,1.18-.15.22-.1.33-.27.33-.53,0-.49-.5-.74-1.51-.74h-1.81v.91Z"/>
  <path class="cls-4" d="M216.42,28.85h9.41c1.65,0,2.97.36,3.96,1.08.99.72,1.49,1.68,1.49,2.88s-.48,2.11-1.44,2.74c-.96.63-2.35.95-4.15.95h-9.26v-3.15h9.26c.88,0,1.33-.23,1.33-.69s-.44-.67-1.33-.67h-9.26v-3.15Z"/>
  <path class="cls-4" d="M226.75,41.57h-10.33v-3.15h14.5v4.1c0,1.8-.56,3.21-1.68,4.23-1.34,1.21-3.15,1.81-5.45,1.81s-3.99-.52-5.37-1.55-2.08-2.37-2.08-3.99c0-.19.01-.5.04-.94h4.26v.5c0,1.84,1.05,2.75,3.15,2.75,1.98,0,2.96-.9,2.96-2.71v-1.06Z"/>
  <path class="cls-4" d="M227.02,53.2h-10.6v-3.15h14.5v4.04c0,1.23-.42,2.18-1.25,2.86-.93.75-2.12,1.13-3.56,1.13s-2.7-.47-3.71-1.4l-5.98,1.81v-3.3l4.67-1.53h3.73v.25c0,.66.39.99,1.17.99.69,0,1.03-.38,1.03-1.15v-.56Z"/>
  <path class="cls-4" d="M230.91,62.7h-14.5v-3.15h14.5v3.15Z"/>
  <path class="cls-4" d="M223.69,68.66h-3.82v-.91h-3.45v-3.15h9.22c1.78,0,3.17.36,4.16,1.07.99.71,1.48,1.71,1.48,3s-.45,2.16-1.34,2.75-2.28.89-4.15.89h-9.37v-3.15h9.08c.57,0,.96-.05,1.18-.15.22-.1.33-.27.33-.53,0-.49-.5-.74-1.51-.74h-1.81v.91Z"/>
  <path class="cls-4" d="M216.42,74h9.41c1.65,0,2.97.36,3.96,1.08.99.72,1.49,1.68,1.49,2.88s-.48,2.11-1.44,2.74c-.96.63-2.35.95-4.15.95h-9.26v-3.15h9.26c.88,0,1.33-.23,1.33-.69s-.44-.67-1.33-.67h-9.26v-3.15Z"/>
  <path class="cls-4" d="M223.69,87.41h-3.82v-.91h-3.45v-3.15h9.22c1.78,0,3.17.36,4.16,1.07.99.71,1.48,1.71,1.48,3s-.45,2.16-1.34,2.75-2.28.89-4.15.89h-9.37v-3.15h9.08c.57,0,.96-.05,1.18-.15.22-.1.33-.27.33-.53,0-.49-.5-.74-1.51-.74h-1.81v.91Z"/>
  <path class="cls-4" d="M216.42,92.75h10.45c1.29,0,2.35.29,3.17.86.82.57,1.23,1.32,1.23,2.23,0,1.09-.68,1.92-2.05,2.51.74.36,1.26.74,1.58,1.15.32.41.47.91.47,1.51,0,.95-.41,1.68-1.23,2.19s-2,.76-3.55.76h-10.08v-3.15h9.43c.47,0,.78-.03.93-.08.15-.05.23-.16.23-.33,0-.31-.36-.47-1.08-.47h-9.5v-3.15h9.43c.46,0,.77-.03.92-.08.16-.06.23-.17.23-.33,0-.31-.39-.47-1.16-.47h-9.43v-3.15Z"/>
  <path class="cls-4" d="M230.91,105.87v3.85c0,2.28-1.23,3.42-3.69,3.42-1.22,0-2.23-.39-3.04-1.17-.67,1.13-1.87,1.7-3.6,1.7-1.32,0-2.38-.33-3.16-1-.38-.33-.64-.67-.79-1.05-.15-.37-.22-.87-.22-1.5v-.6h3.73v.54c0,.32.05.54.16.67s.3.19.58.19c.47,0,.7-.26.7-.79v-.6h3.87c0,.58.27.87.82.87.5,0,.75-.26.75-.78v-.58h-10.61v-3.15h14.5Z"/>
  <path class="cls-4" d="M230.91,118.09h-14.5v-3.15h14.5v3.15Z"/>
  <path class="cls-4" d="M216.42,119.99h9.41c1.65,0,2.97.36,3.96,1.08.99.72,1.49,1.68,1.49,2.88s-.48,2.11-1.44,2.74c-.96.63-2.35.95-4.15.95h-9.26v-3.15h9.26c.88,0,1.33-.23,1.33-.69s-.44-.67-1.33-.67h-9.26v-3.15Z"/>
  <path class="cls-4" d="M230.91,132.71h-14.5v-3.15h14.5v3.15Z"/>
  <path class="cls-4" d="M216.42,134.61h9.41c1.65,0,2.97.36,3.96,1.08.99.72,1.49,1.68,1.49,2.88s-.48,2.11-1.44,2.74c-.96.63-2.35.95-4.15.95h-9.26v-3.15h9.26c.88,0,1.33-.23,1.33-.69s-.44-.67-1.33-.67h-9.26v-3.15Z"/>
  <path class="cls-4" d="M223.69,148.02h-3.82v-.91h-3.45v-3.15h9.22c1.78,0,3.17.36,4.16,1.07.99.71,1.48,1.71,1.48,3s-.45,2.16-1.34,2.75c-.9.6-2.28.89-4.15.89h-9.37v-3.15h9.08c.57,0,.96-.05,1.18-.15s.33-.27.33-.53c0-.49-.5-.74-1.51-.74h-1.81v.91Z"/>
</svg>